# xmcd CD database file
#
# Track frame offsets:
#	150
#	12165
#	29392
#	40388
#	62485
#	81069
#	92330
#	103127
#	114586
#	130457
#	145685
#	167447
#
# Disc length: 2365 seconds
#
# Revision: 0
# Processed by: cddbd v1.5.2PL0 Copyright (c) Steve Scherf et al.
# Submitted via: CDex 1.76
#
DISCID=92093b0c
DTITLE=Bruce Prince-Joseph   - Swingin' Harpsichord (Digitally Remastered)  
DYEAR=2015
DGENRE=Jazz
TTITLE0=Tico Tico    
TTITLE1=The Song From Moulin Rouge (Where Is Your Heart)    
TTITLE2=Fascinating Rhythm    
TTITLE3=On The Street Where You Live    
TTITLE4=Picnic    
TTITLE5=Twelfth Street Rag    
TTITLE6=Moritat    
TTITLE7=Nola    
TTITLE8=I've Grown Accustomed To Her Face    
TTITLE9=Cumana    
TTITLE10=Stardust    
TTITLE11=Fiddle Faddle    
EXTD=YEAR: 2015
EXTT0=
EXTT1=
EXTT2=
EXTT3=
EXTT4=
EXTT5=
EXTT6=
EXTT7=
EXTT8=
EXTT9=
EXTT10=
EXTT11=
PLAYORDER=
